<mxfile host="app.diagrams.net" agent="Mozilla/5.0 (Windows NT 10.0; Win64; x64) AppleWebKit/537.36 (KHTML, like Gecko) Chrome/130.0.0.0 Safari/537.36" version="24.8.3" pages="3">
  <diagram name="Halaman-1" id="snYlryudi3hW4npZinzM">
    <mxGraphModel dx="1707" dy="460" grid="1" gridSize="10" guides="1" tooltips="1" connect="1" arrows="1" fold="1" page="1" pageScale="1" pageWidth="827" pageHeight="1169" math="0" shadow="0">
      <root>
        <mxCell id="0" />
        <mxCell id="1" parent="0" />
        <mxCell id="v_iS7e7OLDMLz8bLMKpO-1" value="Mulai" style="rounded=1;arcSize=40;strokeWidth=2" parent="1" vertex="1">
          <mxGeometry x="305" y="20" width="69" height="49" as="geometry" />
        </mxCell>
        <mxCell id="v_iS7e7OLDMLz8bLMKpO-2" value="Inisialisasi Serial pada 9600 bps" style="rounded=1;arcSize=40;strokeWidth=2" parent="1" vertex="1">
          <mxGeometry x="226" y="119" width="226" height="67" as="geometry" />
        </mxCell>
        <mxCell id="v_iS7e7OLDMLz8bLMKpO-3" value="Inisialisasi Sensor DHT" style="rounded=1;arcSize=40;strokeWidth=2" parent="1" vertex="1">
          <mxGeometry x="245" y="236" width="189" height="49" as="geometry" />
        </mxCell>
        <mxCell id="v_iS7e7OLDMLz8bLMKpO-4" value="Loop" style="rounded=1;arcSize=40;strokeWidth=2" parent="1" vertex="1">
          <mxGeometry x="307" y="335" width="64" height="49" as="geometry" />
        </mxCell>
        <mxCell id="v_iS7e7OLDMLz8bLMKpO-5" value="Baca Kelembaban dan Suhu" style="rounded=1;arcSize=40;strokeWidth=2" parent="1" vertex="1">
          <mxGeometry x="151" y="434" width="226" height="49" as="geometry" />
        </mxCell>
        <mxCell id="v_iS7e7OLDMLz8bLMKpO-6" value="Apakah pembacaan berhasil?" style="rhombus;strokeWidth=2;whiteSpace=wrap;" parent="1" vertex="1">
          <mxGeometry x="161" y="533" width="206" height="206" as="geometry" />
        </mxCell>
        <mxCell id="v_iS7e7OLDMLz8bLMKpO-7" value="Menampilkan pesan Failed to read from DHT sensor!" style="rounded=1;arcSize=40;strokeWidth=2" parent="1" vertex="1">
          <mxGeometry x="20" y="812" width="220" height="67" as="geometry" />
        </mxCell>
        <mxCell id="v_iS7e7OLDMLz8bLMKpO-8" value="Kembali ke Loop" style="rounded=1;arcSize=40;strokeWidth=2" parent="1" vertex="1">
          <mxGeometry x="56" y="937" width="148" height="49" as="geometry" />
        </mxCell>
        <mxCell id="v_iS7e7OLDMLz8bLMKpO-9" value="Menampilkan Kelembaban ke Serial Monitor" style="rounded=1;arcSize=40;strokeWidth=2" parent="1" vertex="1">
          <mxGeometry x="290" y="812" width="218" height="67" as="geometry" />
        </mxCell>
        <mxCell id="v_iS7e7OLDMLz8bLMKpO-10" value="Menampilkan Suhu ke Serial Monitor" style="rounded=1;arcSize=40;strokeWidth=2" parent="1" vertex="1">
          <mxGeometry x="283" y="929" width="231" height="67" as="geometry" />
        </mxCell>
        <mxCell id="v_iS7e7OLDMLz8bLMKpO-11" value="Tunda 2 detik" style="rounded=1;arcSize=40;strokeWidth=2" parent="1" vertex="1">
          <mxGeometry x="409" y="1045" width="129" height="49" as="geometry" />
        </mxCell>
        <mxCell id="v_iS7e7OLDMLz8bLMKpO-12" value="" style="curved=1;startArrow=none;endArrow=block;exitX=0.5;exitY=1;entryX=0.5;entryY=0;rounded=0;" parent="1" source="v_iS7e7OLDMLz8bLMKpO-1" target="v_iS7e7OLDMLz8bLMKpO-2" edge="1">
          <mxGeometry relative="1" as="geometry">
            <Array as="points" />
          </mxGeometry>
        </mxCell>
        <mxCell id="v_iS7e7OLDMLz8bLMKpO-13" value="" style="curved=1;startArrow=none;endArrow=block;exitX=0.5;exitY=0.99;entryX=0.5;entryY=-0.01;rounded=0;" parent="1" source="v_iS7e7OLDMLz8bLMKpO-2" target="v_iS7e7OLDMLz8bLMKpO-3" edge="1">
          <mxGeometry relative="1" as="geometry">
            <Array as="points" />
          </mxGeometry>
        </mxCell>
        <mxCell id="v_iS7e7OLDMLz8bLMKpO-14" value="" style="curved=1;startArrow=none;endArrow=block;exitX=0.5;exitY=0.99;entryX=0.5;entryY=-0.01;rounded=0;" parent="1" source="v_iS7e7OLDMLz8bLMKpO-3" target="v_iS7e7OLDMLz8bLMKpO-4" edge="1">
          <mxGeometry relative="1" as="geometry">
            <Array as="points" />
          </mxGeometry>
        </mxCell>
        <mxCell id="v_iS7e7OLDMLz8bLMKpO-15" value="" style="curved=1;startArrow=none;endArrow=block;exitX=0;exitY=0.92;entryX=0.5;entryY=-0.01;rounded=0;" parent="1" source="v_iS7e7OLDMLz8bLMKpO-4" target="v_iS7e7OLDMLz8bLMKpO-5" edge="1">
          <mxGeometry relative="1" as="geometry">
            <Array as="points">
              <mxPoint x="264" y="409" />
            </Array>
          </mxGeometry>
        </mxCell>
        <mxCell id="v_iS7e7OLDMLz8bLMKpO-16" value="" style="curved=1;startArrow=none;endArrow=block;exitX=0.5;exitY=0.99;entryX=0.5;entryY=0;rounded=0;" parent="1" source="v_iS7e7OLDMLz8bLMKpO-5" target="v_iS7e7OLDMLz8bLMKpO-6" edge="1">
          <mxGeometry relative="1" as="geometry">
            <Array as="points" />
          </mxGeometry>
        </mxCell>
        <mxCell id="v_iS7e7OLDMLz8bLMKpO-17" value="Tidak" style="curved=1;startArrow=none;endArrow=block;exitX=0.02;exitY=1;entryX=0.5;entryY=0;rounded=0;" parent="1" source="v_iS7e7OLDMLz8bLMKpO-6" target="v_iS7e7OLDMLz8bLMKpO-7" edge="1">
          <mxGeometry relative="1" as="geometry">
            <Array as="points">
              <mxPoint x="130" y="775" />
            </Array>
          </mxGeometry>
        </mxCell>
        <mxCell id="v_iS7e7OLDMLz8bLMKpO-18" value="" style="curved=1;startArrow=none;endArrow=block;exitX=0.5;exitY=0.99;entryX=0.5;entryY=0.01;rounded=0;" parent="1" source="v_iS7e7OLDMLz8bLMKpO-7" target="v_iS7e7OLDMLz8bLMKpO-8" edge="1">
          <mxGeometry relative="1" as="geometry">
            <Array as="points" />
          </mxGeometry>
        </mxCell>
        <mxCell id="v_iS7e7OLDMLz8bLMKpO-19" value="Ya" style="curved=1;startArrow=none;endArrow=block;exitX=0.98;exitY=1;entryX=0.5;entryY=0;rounded=0;" parent="1" source="v_iS7e7OLDMLz8bLMKpO-6" target="v_iS7e7OLDMLz8bLMKpO-9" edge="1">
          <mxGeometry relative="1" as="geometry">
            <Array as="points">
              <mxPoint x="398" y="775" />
            </Array>
          </mxGeometry>
        </mxCell>
        <mxCell id="v_iS7e7OLDMLz8bLMKpO-20" value="" style="curved=1;startArrow=none;endArrow=block;exitX=0.5;exitY=0.99;entryX=0.5;entryY=-0.01;rounded=0;" parent="1" source="v_iS7e7OLDMLz8bLMKpO-9" target="v_iS7e7OLDMLz8bLMKpO-10" edge="1">
          <mxGeometry relative="1" as="geometry">
            <Array as="points" />
          </mxGeometry>
        </mxCell>
        <mxCell id="v_iS7e7OLDMLz8bLMKpO-21" value="" style="curved=1;startArrow=none;endArrow=block;exitX=0.5;exitY=0.99;entryX=0.21;entryY=0;rounded=0;" parent="1" source="v_iS7e7OLDMLz8bLMKpO-10" target="v_iS7e7OLDMLz8bLMKpO-11" edge="1">
          <mxGeometry relative="1" as="geometry">
            <Array as="points">
              <mxPoint x="398" y="1020" />
            </Array>
          </mxGeometry>
        </mxCell>
        <mxCell id="v_iS7e7OLDMLz8bLMKpO-22" value="" style="curved=1;startArrow=none;endArrow=block;exitX=0.79;exitY=0;entryX=1.01;entryY=0.65;rounded=0;" parent="1" source="v_iS7e7OLDMLz8bLMKpO-11" target="v_iS7e7OLDMLz8bLMKpO-4" edge="1">
          <mxGeometry relative="1" as="geometry">
            <Array as="points">
              <mxPoint x="549" y="1020" />
              <mxPoint x="549" y="409" />
            </Array>
          </mxGeometry>
        </mxCell>
      </root>
    </mxGraphModel>
  </diagram>
  <diagram id="NPu8t_j3zOCdKtLdxyxr" name="Halaman-2">
    <mxGraphModel dx="1707" dy="460" grid="1" gridSize="10" guides="1" tooltips="1" connect="1" arrows="1" fold="1" page="1" pageScale="1" pageWidth="827" pageHeight="1169" math="0" shadow="0">
      <root>
        <mxCell id="0" />
        <mxCell id="1" parent="0" />
        <mxCell id="LF7y4j-pzv6V8Gb8qL8x-1" value="Mulai" style="rounded=1;arcSize=40;strokeWidth=2" vertex="1" parent="1">
          <mxGeometry x="214" y="20" width="69" height="49" as="geometry" />
        </mxCell>
        <mxCell id="LF7y4j-pzv6V8Gb8qL8x-2" value="Inisialisasi Serial pada 9600 bps" style="rounded=1;arcSize=40;strokeWidth=2" vertex="1" parent="1">
          <mxGeometry x="135" y="119" width="226" height="67" as="geometry" />
        </mxCell>
        <mxCell id="LF7y4j-pzv6V8Gb8qL8x-3" value="Mengatur WiFi ke mode Station" style="rounded=1;arcSize=40;strokeWidth=2" vertex="1" parent="1">
          <mxGeometry x="148" y="236" width="200" height="67" as="geometry" />
        </mxCell>
        <mxCell id="LF7y4j-pzv6V8Gb8qL8x-4" value="Inisialisasi ESP-NOW berhasil?" style="rhombus;strokeWidth=2;whiteSpace=wrap;" vertex="1" parent="1">
          <mxGeometry x="143" y="352" width="210" height="210" as="geometry" />
        </mxCell>
        <mxCell id="LF7y4j-pzv6V8Gb8qL8x-5" value="Menampilkan pesan Gagal menginisialisasi ESP-NOW" style="rounded=1;arcSize=40;strokeWidth=2" vertex="1" parent="1">
          <mxGeometry x="20" y="635" width="217" height="67" as="geometry" />
        </mxCell>
        <mxCell id="LF7y4j-pzv6V8Gb8qL8x-6" value="Kembali ke Mulai" style="rounded=1;arcSize=40;strokeWidth=2" vertex="1" parent="1">
          <mxGeometry x="52" y="769" width="152" height="49" as="geometry" />
        </mxCell>
        <mxCell id="LF7y4j-pzv6V8Gb8qL8x-7" value="Registrasi callback pengiriman" style="rounded=1;arcSize=40;strokeWidth=2" vertex="1" parent="1">
          <mxGeometry x="287" y="635" width="163" height="67" as="geometry" />
        </mxCell>
        <mxCell id="LF7y4j-pzv6V8Gb8qL8x-8" value="Menambahkan perangkat penerima dengan MAC address yang ditentukan" style="rounded=1;arcSize=40;strokeWidth=2" vertex="1" parent="1">
          <mxGeometry x="263" y="752" width="210" height="84" as="geometry" />
        </mxCell>
        <mxCell id="LF7y4j-pzv6V8Gb8qL8x-9" value="Loop" style="rounded=1;arcSize=40;strokeWidth=2" vertex="1" parent="1">
          <mxGeometry x="336" y="886" width="64" height="49" as="geometry" />
        </mxCell>
        <mxCell id="LF7y4j-pzv6V8Gb8qL8x-10" value="Konversi pesan ke byte array" style="rounded=1;arcSize=40;strokeWidth=2" vertex="1" parent="1">
          <mxGeometry x="199" y="985" width="195" height="67" as="geometry" />
        </mxCell>
        <mxCell id="LF7y4j-pzv6V8Gb8qL8x-11" value="Kirim data ke alamat MAC perangkat penerima" style="rounded=1;arcSize=40;strokeWidth=2" vertex="1" parent="1">
          <mxGeometry x="189" y="1101" width="216" height="67" as="geometry" />
        </mxCell>
        <mxCell id="LF7y4j-pzv6V8Gb8qL8x-12" value="Menampilkan Pesan terkirim di Serial Monitor" style="rounded=1;arcSize=40;strokeWidth=2" vertex="1" parent="1">
          <mxGeometry x="191" y="1218" width="211" height="67" as="geometry" />
        </mxCell>
        <mxCell id="LF7y4j-pzv6V8Gb8qL8x-13" value="Tunda 2 detik" style="rounded=1;arcSize=40;strokeWidth=2" vertex="1" parent="1">
          <mxGeometry x="304" y="1335" width="129" height="49" as="geometry" />
        </mxCell>
        <mxCell id="LF7y4j-pzv6V8Gb8qL8x-14" value="" style="curved=1;startArrow=none;endArrow=block;exitX=0.5;exitY=1;entryX=0.5;entryY=0;rounded=0;" edge="1" parent="1" source="LF7y4j-pzv6V8Gb8qL8x-1" target="LF7y4j-pzv6V8Gb8qL8x-2">
          <mxGeometry relative="1" as="geometry">
            <Array as="points" />
          </mxGeometry>
        </mxCell>
        <mxCell id="LF7y4j-pzv6V8Gb8qL8x-15" value="" style="curved=1;startArrow=none;endArrow=block;exitX=0.5;exitY=0.99;entryX=0.5;entryY=-0.01;rounded=0;" edge="1" parent="1" source="LF7y4j-pzv6V8Gb8qL8x-2" target="LF7y4j-pzv6V8Gb8qL8x-3">
          <mxGeometry relative="1" as="geometry">
            <Array as="points" />
          </mxGeometry>
        </mxCell>
        <mxCell id="LF7y4j-pzv6V8Gb8qL8x-16" value="" style="curved=1;startArrow=none;endArrow=block;exitX=0.5;exitY=0.99;entryX=0.5;entryY=0;rounded=0;" edge="1" parent="1" source="LF7y4j-pzv6V8Gb8qL8x-3" target="LF7y4j-pzv6V8Gb8qL8x-4">
          <mxGeometry relative="1" as="geometry">
            <Array as="points" />
          </mxGeometry>
        </mxCell>
        <mxCell id="LF7y4j-pzv6V8Gb8qL8x-17" value="Tidak" style="curved=1;startArrow=none;endArrow=block;exitX=0.08;exitY=1;entryX=0.5;entryY=0;rounded=0;" edge="1" parent="1" source="LF7y4j-pzv6V8Gb8qL8x-4" target="LF7y4j-pzv6V8Gb8qL8x-5">
          <mxGeometry relative="1" as="geometry">
            <Array as="points">
              <mxPoint x="128" y="599" />
            </Array>
          </mxGeometry>
        </mxCell>
        <mxCell id="LF7y4j-pzv6V8Gb8qL8x-18" value="" style="curved=1;startArrow=none;endArrow=block;exitX=0.5;exitY=1;entryX=0.5;entryY=0.01;rounded=0;" edge="1" parent="1" source="LF7y4j-pzv6V8Gb8qL8x-5" target="LF7y4j-pzv6V8Gb8qL8x-6">
          <mxGeometry relative="1" as="geometry">
            <Array as="points" />
          </mxGeometry>
        </mxCell>
        <mxCell id="LF7y4j-pzv6V8Gb8qL8x-19" value="Ya" style="curved=1;startArrow=none;endArrow=block;exitX=0.92;exitY=1;entryX=0.5;entryY=0;rounded=0;" edge="1" parent="1" source="LF7y4j-pzv6V8Gb8qL8x-4" target="LF7y4j-pzv6V8Gb8qL8x-7">
          <mxGeometry relative="1" as="geometry">
            <Array as="points">
              <mxPoint x="368" y="599" />
            </Array>
          </mxGeometry>
        </mxCell>
        <mxCell id="LF7y4j-pzv6V8Gb8qL8x-20" value="" style="curved=1;startArrow=none;endArrow=block;exitX=0.5;exitY=1;entryX=0.5;entryY=0;rounded=0;" edge="1" parent="1" source="LF7y4j-pzv6V8Gb8qL8x-7" target="LF7y4j-pzv6V8Gb8qL8x-8">
          <mxGeometry relative="1" as="geometry">
            <Array as="points" />
          </mxGeometry>
        </mxCell>
        <mxCell id="LF7y4j-pzv6V8Gb8qL8x-21" value="" style="curved=1;startArrow=none;endArrow=block;exitX=0.5;exitY=1;entryX=0.5;entryY=0;rounded=0;" edge="1" parent="1" source="LF7y4j-pzv6V8Gb8qL8x-8" target="LF7y4j-pzv6V8Gb8qL8x-9">
          <mxGeometry relative="1" as="geometry">
            <Array as="points" />
          </mxGeometry>
        </mxCell>
        <mxCell id="LF7y4j-pzv6V8Gb8qL8x-22" value="" style="curved=1;startArrow=none;endArrow=block;exitX=0;exitY=0.95;entryX=0.5;entryY=0;rounded=0;" edge="1" parent="1" source="LF7y4j-pzv6V8Gb8qL8x-9" target="LF7y4j-pzv6V8Gb8qL8x-10">
          <mxGeometry relative="1" as="geometry">
            <Array as="points">
              <mxPoint x="297" y="960" />
            </Array>
          </mxGeometry>
        </mxCell>
        <mxCell id="LF7y4j-pzv6V8Gb8qL8x-23" value="" style="curved=1;startArrow=none;endArrow=block;exitX=0.5;exitY=0.99;entryX=0.5;entryY=0.01;rounded=0;" edge="1" parent="1" source="LF7y4j-pzv6V8Gb8qL8x-10" target="LF7y4j-pzv6V8Gb8qL8x-11">
          <mxGeometry relative="1" as="geometry">
            <Array as="points" />
          </mxGeometry>
        </mxCell>
        <mxCell id="LF7y4j-pzv6V8Gb8qL8x-24" value="" style="curved=1;startArrow=none;endArrow=block;exitX=0.5;exitY=1;entryX=0.5;entryY=0;rounded=0;" edge="1" parent="1" source="LF7y4j-pzv6V8Gb8qL8x-11" target="LF7y4j-pzv6V8Gb8qL8x-12">
          <mxGeometry relative="1" as="geometry">
            <Array as="points" />
          </mxGeometry>
        </mxCell>
        <mxCell id="LF7y4j-pzv6V8Gb8qL8x-25" value="" style="curved=1;startArrow=none;endArrow=block;exitX=0.5;exitY=1;entryX=0.22;entryY=-0.01;rounded=0;" edge="1" parent="1" source="LF7y4j-pzv6V8Gb8qL8x-12" target="LF7y4j-pzv6V8Gb8qL8x-13">
          <mxGeometry relative="1" as="geometry">
            <Array as="points">
              <mxPoint x="297" y="1310" />
            </Array>
          </mxGeometry>
        </mxCell>
        <mxCell id="LF7y4j-pzv6V8Gb8qL8x-26" value="" style="curved=1;startArrow=none;endArrow=block;exitX=0.77;exitY=-0.01;entryX=1;entryY=0.95;rounded=0;" edge="1" parent="1" source="LF7y4j-pzv6V8Gb8qL8x-13" target="LF7y4j-pzv6V8Gb8qL8x-9">
          <mxGeometry relative="1" as="geometry">
            <Array as="points">
              <mxPoint x="440" y="1310" />
              <mxPoint x="440" y="960" />
            </Array>
          </mxGeometry>
        </mxCell>
      </root>
    </mxGraphModel>
  </diagram>
  <diagram id="R5CitBrqHKqiKgXYyXWF" name="Halaman-3">
    <mxGraphModel dx="1707" dy="460" grid="1" gridSize="10" guides="1" tooltips="1" connect="1" arrows="1" fold="1" page="1" pageScale="1" pageWidth="827" pageHeight="1169" math="0" shadow="0">
      <root>
        <mxCell id="0" />
        <mxCell id="1" parent="0" />
        <mxCell id="MDajBHwONmYAeSLdNqRe-1" value="Mulai" style="rounded=1;arcSize=40;strokeWidth=2" vertex="1" parent="1">
          <mxGeometry x="214" y="20" width="69" height="49" as="geometry" />
        </mxCell>
        <mxCell id="MDajBHwONmYAeSLdNqRe-2" value="Inisialisasi Serial pada 9600 bps" style="rounded=1;arcSize=40;strokeWidth=2" vertex="1" parent="1">
          <mxGeometry x="135" y="119" width="226" height="67" as="geometry" />
        </mxCell>
        <mxCell id="MDajBHwONmYAeSLdNqRe-3" value="Mengatur WiFi ke mode Station" style="rounded=1;arcSize=40;strokeWidth=2" vertex="1" parent="1">
          <mxGeometry x="148" y="236" width="200" height="67" as="geometry" />
        </mxCell>
        <mxCell id="MDajBHwONmYAeSLdNqRe-4" value="Inisialisasi ESP-NOW berhasil?" style="rhombus;strokeWidth=2;whiteSpace=wrap;" vertex="1" parent="1">
          <mxGeometry x="143" y="352" width="210" height="210" as="geometry" />
        </mxCell>
        <mxCell id="MDajBHwONmYAeSLdNqRe-5" value="Menampilkan pesan Gagal menginisialisasi ESP-NOW" style="rounded=1;arcSize=40;strokeWidth=2" vertex="1" parent="1">
          <mxGeometry x="20" y="635" width="217" height="67" as="geometry" />
        </mxCell>
        <mxCell id="MDajBHwONmYAeSLdNqRe-6" value="Kembali ke Mulai" style="rounded=1;arcSize=40;strokeWidth=2" vertex="1" parent="1">
          <mxGeometry x="52" y="752" width="152" height="49" as="geometry" />
        </mxCell>
        <mxCell id="MDajBHwONmYAeSLdNqRe-7" value="Registrasi callback penerimaan data" style="rounded=1;arcSize=40;strokeWidth=2" vertex="1" parent="1">
          <mxGeometry x="287" y="635" width="163" height="67" as="geometry" />
        </mxCell>
        <mxCell id="MDajBHwONmYAeSLdNqRe-8" value="Loop" style="rounded=1;arcSize=40;strokeWidth=2" vertex="1" parent="1">
          <mxGeometry x="336" y="752" width="64" height="49" as="geometry" />
        </mxCell>
        <mxCell id="MDajBHwONmYAeSLdNqRe-9" value="Apakah data diterima?" style="rhombus;strokeWidth=2;whiteSpace=wrap;" vertex="1" parent="1">
          <mxGeometry x="263" y="874" width="211" height="211" as="geometry" />
        </mxCell>
        <mxCell id="MDajBHwONmYAeSLdNqRe-10" value="Menampilkan alamat MAC pengirim" style="rounded=1;arcSize=40;strokeWidth=2" vertex="1" parent="1">
          <mxGeometry x="261" y="1157" width="215" height="67" as="geometry" />
        </mxCell>
        <mxCell id="MDajBHwONmYAeSLdNqRe-11" value="Menyimpan data ke buffer receivedMessage" style="rounded=1;arcSize=40;strokeWidth=2" vertex="1" parent="1">
          <mxGeometry x="258" y="1274" width="220" height="67" as="geometry" />
        </mxCell>
        <mxCell id="MDajBHwONmYAeSLdNqRe-12" value="Menampilkan pesan ke Serial Monitor" style="rounded=1;arcSize=40;strokeWidth=2" vertex="1" parent="1">
          <mxGeometry x="272" y="1391" width="193" height="67" as="geometry" />
        </mxCell>
        <mxCell id="MDajBHwONmYAeSLdNqRe-13" value="" style="curved=1;startArrow=none;endArrow=block;exitX=0.5;exitY=1;entryX=0.5;entryY=0;rounded=0;" edge="1" parent="1" source="MDajBHwONmYAeSLdNqRe-1" target="MDajBHwONmYAeSLdNqRe-2">
          <mxGeometry relative="1" as="geometry">
            <Array as="points" />
          </mxGeometry>
        </mxCell>
        <mxCell id="MDajBHwONmYAeSLdNqRe-14" value="" style="curved=1;startArrow=none;endArrow=block;exitX=0.5;exitY=0.99;entryX=0.5;entryY=-0.01;rounded=0;" edge="1" parent="1" source="MDajBHwONmYAeSLdNqRe-2" target="MDajBHwONmYAeSLdNqRe-3">
          <mxGeometry relative="1" as="geometry">
            <Array as="points" />
          </mxGeometry>
        </mxCell>
        <mxCell id="MDajBHwONmYAeSLdNqRe-15" value="" style="curved=1;startArrow=none;endArrow=block;exitX=0.5;exitY=0.99;entryX=0.5;entryY=0;rounded=0;" edge="1" parent="1" source="MDajBHwONmYAeSLdNqRe-3" target="MDajBHwONmYAeSLdNqRe-4">
          <mxGeometry relative="1" as="geometry">
            <Array as="points" />
          </mxGeometry>
        </mxCell>
        <mxCell id="MDajBHwONmYAeSLdNqRe-16" value="Tidak" style="curved=1;startArrow=none;endArrow=block;exitX=0.08;exitY=1;entryX=0.5;entryY=0;rounded=0;" edge="1" parent="1" source="MDajBHwONmYAeSLdNqRe-4" target="MDajBHwONmYAeSLdNqRe-5">
          <mxGeometry relative="1" as="geometry">
            <Array as="points">
              <mxPoint x="128" y="599" />
            </Array>
          </mxGeometry>
        </mxCell>
        <mxCell id="MDajBHwONmYAeSLdNqRe-17" value="" style="curved=1;startArrow=none;endArrow=block;exitX=0.5;exitY=1;entryX=0.5;entryY=-0.01;rounded=0;" edge="1" parent="1" source="MDajBHwONmYAeSLdNqRe-5" target="MDajBHwONmYAeSLdNqRe-6">
          <mxGeometry relative="1" as="geometry">
            <Array as="points" />
          </mxGeometry>
        </mxCell>
        <mxCell id="MDajBHwONmYAeSLdNqRe-18" value="Ya" style="curved=1;startArrow=none;endArrow=block;exitX=0.92;exitY=1;entryX=0.5;entryY=0;rounded=0;" edge="1" parent="1" source="MDajBHwONmYAeSLdNqRe-4" target="MDajBHwONmYAeSLdNqRe-7">
          <mxGeometry relative="1" as="geometry">
            <Array as="points">
              <mxPoint x="368" y="599" />
            </Array>
          </mxGeometry>
        </mxCell>
        <mxCell id="MDajBHwONmYAeSLdNqRe-19" value="" style="curved=1;startArrow=none;endArrow=block;exitX=0.5;exitY=1;entryX=0.5;entryY=-0.01;rounded=0;" edge="1" parent="1" source="MDajBHwONmYAeSLdNqRe-7" target="MDajBHwONmYAeSLdNqRe-8">
          <mxGeometry relative="1" as="geometry">
            <Array as="points" />
          </mxGeometry>
        </mxCell>
        <mxCell id="MDajBHwONmYAeSLdNqRe-20" value="" style="curved=1;startArrow=none;endArrow=block;exitX=0.37;exitY=0.99;entryX=0.42;entryY=0;rounded=0;" edge="1" parent="1" source="MDajBHwONmYAeSLdNqRe-8" target="MDajBHwONmYAeSLdNqRe-9">
          <mxGeometry relative="1" as="geometry">
            <Array as="points">
              <mxPoint x="347" y="837" />
            </Array>
          </mxGeometry>
        </mxCell>
        <mxCell id="MDajBHwONmYAeSLdNqRe-21" value="Ya" style="curved=1;startArrow=none;endArrow=block;exitX=0.5;exitY=1;entryX=0.5;entryY=0.01;rounded=0;" edge="1" parent="1" source="MDajBHwONmYAeSLdNqRe-9" target="MDajBHwONmYAeSLdNqRe-10">
          <mxGeometry relative="1" as="geometry">
            <Array as="points" />
          </mxGeometry>
        </mxCell>
        <mxCell id="MDajBHwONmYAeSLdNqRe-22" value="" style="curved=1;startArrow=none;endArrow=block;exitX=0.5;exitY=1;entryX=0.5;entryY=0;rounded=0;" edge="1" parent="1" source="MDajBHwONmYAeSLdNqRe-10" target="MDajBHwONmYAeSLdNqRe-11">
          <mxGeometry relative="1" as="geometry">
            <Array as="points" />
          </mxGeometry>
        </mxCell>
        <mxCell id="MDajBHwONmYAeSLdNqRe-23" value="" style="curved=1;startArrow=none;endArrow=block;exitX=0.5;exitY=0.99;entryX=0.5;entryY=-0.01;rounded=0;" edge="1" parent="1" source="MDajBHwONmYAeSLdNqRe-11" target="MDajBHwONmYAeSLdNqRe-12">
          <mxGeometry relative="1" as="geometry">
            <Array as="points" />
          </mxGeometry>
        </mxCell>
        <mxCell id="MDajBHwONmYAeSLdNqRe-24" value="Tidak" style="curved=1;startArrow=none;endArrow=block;exitX=0.57;exitY=0;entryX=0.63;entryY=0.99;rounded=0;" edge="1" parent="1" source="MDajBHwONmYAeSLdNqRe-9" target="MDajBHwONmYAeSLdNqRe-8">
          <mxGeometry relative="1" as="geometry">
            <Array as="points">
              <mxPoint x="389" y="837" />
            </Array>
          </mxGeometry>
        </mxCell>
      </root>
    </mxGraphModel>
  </diagram>
</mxfile>
